# Blender v2.83.1 OBJ File: ''
# www.blender.org
mtllib flashlight.mtl
o Cylinder
v 0.000000 0.146362 -0.473375
v 0.000000 0.146362 0.619894
v 0.056010 0.135221 -0.473375
v 0.056010 0.135221 0.619894
v 0.103493 0.103493 -0.473375
v 0.103493 0.103493 0.619894
v 0.135221 0.056010 -0.473375
v 0.135221 0.056010 0.619894
v 0.146362 0.000000 -0.473375
v 0.146362 -0.000000 0.619894
v 0.135221 -0.056010 -0.473375
v 0.135221 -0.056010 0.619894
v 0.103493 -0.103493 -0.473375
v 0.103493 -0.103493 0.619894
v 0.056010 -0.135221 -0.473375
v 0.056010 -0.135221 0.619894
v 0.000000 -0.146362 -0.473375
v 0.000000 -0.146362 0.619894
v -0.056010 -0.135221 -0.473375
v -0.056010 -0.135221 0.619894
v -0.103493 -0.103493 -0.473375
v -0.103493 -0.103493 0.619894
v -0.135221 -0.056010 -0.473375
v -0.135221 -0.056010 0.619894
v -0.146362 0.000000 -0.473375
v -0.146362 -0.000000 0.619894
v -0.135221 0.056010 -0.473375
v -0.135221 0.056010 0.619894
v -0.103493 0.103493 -0.473375
v -0.103493 0.103493 0.619894
v -0.056010 0.135221 -0.473375
v -0.056010 0.135221 0.619894
v 0.000000 0.146362 -0.473375
v 0.056010 0.135221 -0.473375
v 0.103493 0.103493 -0.473375
v 0.135221 0.056010 -0.473375
v 0.146362 0.000000 -0.473375
v 0.135221 -0.056010 -0.473375
v 0.103493 -0.103493 -0.473375
v 0.056010 -0.135221 -0.473375
v 0.000000 -0.146362 -0.473375
v -0.056010 -0.135221 -0.473375
v -0.103493 -0.103493 -0.473375
v -0.135221 -0.056010 -0.473375
v -0.146362 0.000000 -0.473375
v -0.135221 0.056010 -0.473375
v -0.103493 0.103493 -0.473375
v -0.056010 0.135221 -0.473375
v -0.000000 0.212100 -0.545581
v 0.081167 0.195955 -0.545581
v 0.149977 0.149977 -0.545581
v 0.195955 0.081167 -0.545581
v 0.212100 0.000000 -0.545581
v 0.195955 -0.081167 -0.545581
v 0.149977 -0.149977 -0.545581
v 0.081167 -0.195955 -0.545581
v 0.000000 -0.212100 -0.545581
v -0.081167 -0.195955 -0.545581
v -0.149977 -0.149977 -0.545581
v -0.195955 -0.081167 -0.545581
v -0.212100 0.000000 -0.545581
v -0.195955 0.081167 -0.545581
v -0.149977 0.149977 -0.545581
v -0.081167 0.195955 -0.545581
v -0.000000 0.212100 -0.545581
v 0.081167 0.195955 -0.545581
v 0.149977 0.149977 -0.545581
v 0.195955 0.081167 -0.545581
v 0.212100 0.000000 -0.545581
v 0.195955 -0.081167 -0.545581
v 0.149977 -0.149977 -0.545581
v 0.081167 -0.195955 -0.545581
v 0.000000 -0.212100 -0.545581
v -0.081167 -0.195955 -0.545581
v -0.149977 -0.149977 -0.545581
v -0.195955 -0.081167 -0.545581
v -0.212100 0.000000 -0.545581
v -0.195955 0.081167 -0.545581
v -0.149977 0.149977 -0.545581
v -0.081167 0.195955 -0.545581
v -0.000000 0.250613 -0.601081
v 0.095906 0.231537 -0.601081
v 0.177210 0.177210 -0.601081
v 0.231537 0.095906 -0.601081
v 0.250613 0.000000 -0.601081
v 0.231537 -0.095906 -0.601081
v 0.177210 -0.177210 -0.601081
v 0.095906 -0.231537 -0.601081
v 0.000000 -0.250613 -0.601081
v -0.095906 -0.231537 -0.601081
v -0.177210 -0.177210 -0.601081
v -0.231537 -0.095906 -0.601081
v -0.250613 0.000000 -0.601081
v -0.231537 0.095906 -0.601081
v -0.177210 0.177210 -0.601081
v -0.095905 0.231537 -0.601081
v -0.000000 0.250613 -0.601081
v 0.095906 0.231537 -0.601081
v 0.177210 0.177210 -0.601081
v 0.231537 0.095906 -0.601081
v 0.250613 0.000000 -0.601081
v 0.231537 -0.095906 -0.601081
v 0.177210 -0.177210 -0.601081
v 0.095906 -0.231537 -0.601081
v 0.000000 -0.250613 -0.601081
v -0.095906 -0.231537 -0.601081
v -0.177210 -0.177210 -0.601081
v -0.231537 -0.095906 -0.601081
v -0.250613 0.000000 -0.601081
v -0.231537 0.095906 -0.601081
v -0.177210 0.177210 -0.601081
v -0.095905 0.231537 -0.601081
v -0.000000 0.250613 -1.022257
v 0.095906 0.231537 -1.022257
v 0.177210 0.177210 -1.022257
v 0.231536 0.095906 -1.022257
v 0.250613 0.000000 -1.022257
v 0.231536 -0.095906 -1.022257
v 0.177210 -0.177210 -1.022257
v 0.095906 -0.231537 -1.022257
v 0.000000 -0.250613 -1.022257
v -0.095906 -0.231537 -1.022257
v -0.177210 -0.177210 -1.022257
v -0.231537 -0.095906 -1.022257
v -0.250613 0.000000 -1.022257
v -0.231537 0.095906 -1.022257
v -0.177210 0.177210 -1.022257
v -0.095906 0.231537 -1.022257
v -0.000000 0.250613 -1.022257
v 0.095906 0.231537 -1.022257
v 0.177210 0.177210 -1.022257
v 0.231536 0.095906 -1.022257
v 0.250613 0.000000 -1.022257
v 0.231536 -0.095906 -1.022257
v 0.177210 -0.177210 -1.022257
v 0.095906 -0.231537 -1.022257
v 0.000000 -0.250613 -1.022257
v -0.095906 -0.231537 -1.022257
v -0.177210 -0.177210 -1.022257
v -0.231537 -0.095906 -1.022257
v -0.250613 0.000000 -1.022257
v -0.231537 0.095906 -1.022257
v -0.177210 0.177210 -1.022257
v -0.095906 0.231537 -1.022257
vt 1.000000 0.500000
vt 1.000000 1.000000
vt 0.937500 1.000000
vt 0.937500 0.500000
vt 0.875000 1.000000
vt 0.875000 0.500000
vt 0.812500 1.000000
vt 0.812500 0.500000
vt 0.750000 1.000000
vt 0.750000 0.500000
vt 0.687500 1.000000
vt 0.687500 0.500000
vt 0.625000 1.000000
vt 0.625000 0.500000
vt 0.562500 1.000000
vt 0.562500 0.500000
vt 0.500000 1.000000
vt 0.500000 0.500000
vt 0.437500 1.000000
vt 0.437500 0.500000
vt 0.375000 1.000000
vt 0.375000 0.500000
vt 0.312500 1.000000
vt 0.312500 0.500000
vt 0.250000 1.000000
vt 0.250000 0.500000
vt 0.187500 1.000000
vt 0.187500 0.500000
vt 0.125000 1.000000
vt 0.125000 0.500000
vt 0.341844 0.471731
vt 0.250000 0.490000
vt 0.158156 0.471731
vt 0.080294 0.419706
vt 0.028269 0.341844
vt 0.010000 0.250000
vt 0.028269 0.158156
vt 0.080294 0.080294
vt 0.158156 0.028269
vt 0.250000 0.010000
vt 0.341844 0.028269
vt 0.419706 0.080294
vt 0.471731 0.158156
vt 0.490000 0.250000
vt 0.471731 0.341844
vt 0.419706 0.419706
vt 0.062500 1.000000
vt 0.062500 0.500000
vt 0.000000 1.000000
vt 0.000000 0.500000
vt 0.812500 0.500000
vt 0.875000 0.500000
vt 0.000000 0.000000
vt 0.000000 0.000000
vt 0.000000 0.000000
vt 0.000000 0.000000
vt 0.250000 0.500000
vt 0.312500 0.500000
vt 0.000000 0.000000
vt 0.000000 0.000000
vt 0.000000 0.000000
vt 0.000000 0.000000
vt 0.000000 0.000000
vt 0.000000 0.000000
vt 0.000000 0.000000
vt 0.000000 0.000000
vt 0.000000 0.000000
vt 0.000000 0.000000
vt 0.500000 0.500000
vt 0.562500 0.500000
vt 0.000000 0.000000
vt 0.000000 0.000000
vt 0.000000 0.000000
vt 0.000000 0.000000
vt 0.750000 0.500000
vt 0.187500 0.500000
vt 0.000000 0.000000
vt 0.000000 0.000000
vt 0.437500 0.500000
vt 0.000000 0.000000
vt 0.000000 0.000000
vt 0.000000 0.000000
vt 0.000000 0.000000
vt 0.687500 0.500000
vt 0.125000 0.500000
vt 0.937500 0.500000
vt 1.000000 0.500000
vt 0.000000 0.000000
vt 0.000000 0.000000
vt 0.375000 0.500000
vt 0.000000 0.000000
vt 0.000000 0.000000
vt 0.000000 0.000000
vt 0.625000 0.500000
vt 0.062500 0.500000
vt 0.000000 0.000000
vt 0.000000 0.000000
vt 0.000000 0.000000
vt 0.000000 0.000000
vt 0.000000 0.000000
vt 0.000000 0.500000
vt 0.937500 0.500000
vt 0.875000 0.500000
vt 0.875000 0.500000
vt 0.937500 0.500000
vt 0.187500 0.500000
vt 0.250000 0.500000
vt 0.000000 0.000000
vt 0.125000 0.500000
vt 1.000000 0.500000
vt 0.000000 0.000000
vt 0.062500 0.500000
vt 0.000000 0.000000
vt 0.000000 0.500000
vt 0.812500 0.500000
vt 0.000000 0.000000
vt 0.000000 0.000000
vt 0.000000 0.000000
vt 0.750000 0.500000
vt 0.000000 0.000000
vt 0.000000 0.000000
vt 0.687500 0.500000
vt 0.000000 0.000000
vt 0.625000 0.500000
vt 0.000000 0.000000
vt 0.562500 0.500000
vt 0.000000 0.000000
vt 0.500000 0.500000
vt 0.000000 0.000000
vt 0.437500 0.500000
vt 0.000000 0.000000
vt 0.375000 0.500000
vt 0.000000 0.000000
vt 0.312500 0.500000
vt 0.750000 0.490000
vt 0.841844 0.471731
vt 0.919706 0.419706
vt 0.971731 0.341844
vt 0.990000 0.250000
vt 0.971731 0.158156
vt 0.919706 0.080294
vt 0.841844 0.028269
vt 0.750000 0.010000
vt 0.658156 0.028269
vt 0.580294 0.080294
vt 0.528269 0.158156
vt 0.510000 0.250000
vt 0.528269 0.341844
vt 0.580294 0.419706
vt 0.658156 0.471731
vt 0.000000 0.000000
vt 0.000000 0.000000
vt 0.000000 0.500000
vt 0.062500 0.500000
vt 0.812500 0.500000
vt 0.000000 0.000000
vt 0.000000 0.000000
vt 0.000000 0.000000
vt 0.750000 0.500000
vt 0.000000 0.000000
vt 0.000000 0.000000
vt 0.687500 0.500000
vt 0.000000 0.000000
vt 0.625000 0.500000
vt 0.000000 0.000000
vt 0.562500 0.500000
vt 0.000000 0.000000
vt 0.500000 0.500000
vt 0.000000 0.000000
vt 0.437500 0.500000
vt 0.000000 0.000000
vt 0.375000 0.500000
vt 0.000000 0.000000
vt 0.312500 0.500000
vt 0.000000 0.000000
vt 0.250000 0.500000
vt 0.000000 0.000000
vt 0.187500 0.500000
vt 0.000000 0.000000
vt 0.125000 0.500000
vt 1.000000 0.500000
vn 0.1951 0.9808 0.0000
vn 0.5556 0.8315 0.0000
vn 0.8315 0.5556 0.0000
vn 0.9808 0.1951 0.0000
vn 0.9808 -0.1951 -0.0000
vn 0.8315 -0.5556 -0.0000
vn 0.5556 -0.8315 -0.0000
vn 0.1951 -0.9808 -0.0000
vn -0.1951 -0.9808 -0.0000
vn -0.5556 -0.8315 0.0000
vn -0.8315 -0.5556 -0.0000
vn -0.9808 -0.1951 -0.0000
vn -0.9808 0.1951 0.0000
vn -0.8315 0.5556 0.0000
vn -0.0000 0.0000 1.0000
vn -0.5556 0.8315 0.0000
vn -0.1951 0.9808 0.0000
vn 0.6202 0.4144 0.6660
vn -0.4593 -0.6874 0.5626
vn -0.7316 -0.1455 0.6660
vn -0.6202 0.4144 0.6660
vn 0.1455 0.7316 0.6660
vn -0.4144 0.6202 0.6660
vn 0.1455 -0.7316 0.6660
vn 0.4144 0.6202 0.6660
vn -0.1455 0.7316 0.6660
vn 0.7316 0.1455 0.6660
vn -0.7316 0.1455 0.6661
vn -0.1455 -0.7316 0.6660
vn 0.7316 -0.1455 0.6660
vn 0.6202 -0.4144 0.6660
vn 0.4144 -0.6202 0.6660
vn -0.4144 -0.6202 0.6660
vn -0.6202 -0.4144 0.6660
vn -0.8108 0.1613 0.5626
vn -0.6874 -0.4593 0.5626
vn -0.6874 0.4593 0.5626
vn 0.1613 0.8108 0.5626
vn -0.8108 -0.1613 0.5626
vn -0.4593 0.6874 0.5626
vn 0.4593 0.6874 0.5626
vn -0.1613 0.8108 0.5626
vn 0.6874 0.4593 0.5626
vn 0.8108 0.1613 0.5626
vn 0.8108 -0.1613 0.5626
vn 0.6874 -0.4593 0.5626
vn 0.4593 -0.6874 0.5626
vn 0.1613 -0.8108 0.5626
vn -0.1613 -0.8108 0.5626
vn -0.0000 0.0000 -1.0000
usemtl None
s off
f 1/1/1 2/2/1 4/3/1 3/4/1
f 3/4/2 4/3/2 6/5/2 5/6/2
f 5/6/3 6/5/3 8/7/3 7/8/3
f 7/8/4 8/7/4 10/9/4 9/10/4
f 9/10/5 10/9/5 12/11/5 11/12/5
f 11/12/6 12/11/6 14/13/6 13/14/6
f 13/14/7 14/13/7 16/15/7 15/16/7
f 15/16/8 16/15/8 18/17/8 17/18/8
f 17/18/9 18/17/9 20/19/9 19/20/9
f 19/20/10 20/19/10 22/21/10 21/22/10
f 21/22/11 22/21/11 24/23/11 23/24/11
f 23/24/12 24/23/12 26/25/12 25/26/12
f 25/26/13 26/25/13 28/27/13 27/28/13
f 27/28/14 28/27/14 30/29/14 29/30/14
f 4/31/15 2/32/15 32/33/15 30/34/15 28/35/15 26/36/15 24/37/15 22/38/15 20/39/15 18/40/15 16/41/15 14/42/15 12/43/15 10/44/15 8/45/15 6/46/15
f 29/30/16 30/29/16 32/47/16 31/48/16
f 31/48/17 32/47/17 2/49/17 1/50/17
f 5/6/18 7/8/18 52/51/18 51/52/18
f 74/53/19 75/54/19 107/55/19 106/56/19
f 23/24/20 25/26/20 61/57/20 60/58/20
f 46/59/21 47/60/21 79/61/21 78/62/21
f 33/63/22 34/64/22 66/65/22 65/66/22
f 47/60/23 48/67/23 80/68/23 79/61/23
f 15/16/24 17/18/24 57/69/24 56/70/24
f 34/64/25 35/71/25 67/72/25 66/65/25
f 48/67/26 33/63/26 65/66/26 80/68/26
f 35/71/18 36/73/18 68/74/18 67/72/18
f 7/8/27 9/10/27 53/75/27 52/51/27
f 25/26/28 27/28/28 62/76/28 61/57/28
f 36/73/27 37/77/27 69/78/27 68/74/27
f 17/18/29 19/20/29 58/79/29 57/69/29
f 37/77/30 38/80/30 70/81/30 69/78/30
f 38/80/31 39/82/31 71/83/31 70/81/31
f 9/10/30 11/12/30 54/84/30 53/75/30
f 27/28/21 29/30/21 63/85/21 62/76/21
f 1/1/22 3/4/22 50/86/22 49/87/22
f 39/82/32 40/88/32 72/89/32 71/83/32
f 19/20/33 21/22/33 59/90/33 58/79/33
f 40/88/24 41/91/24 73/92/24 72/89/24
f 41/91/29 42/93/29 74/53/29 73/92/29
f 11/12/31 13/14/31 55/94/31 54/84/31
f 29/30/23 31/48/23 64/95/23 63/85/23
f 42/93/33 43/96/33 75/54/33 74/53/33
f 3/4/25 5/6/25 51/52/25 50/86/25
f 21/22/34 23/24/34 60/58/34 59/90/34
f 43/96/34 44/97/34 76/98/34 75/54/34
f 44/97/20 45/99/20 77/100/20 76/98/20
f 13/14/32 15/16/32 56/70/32 55/94/32
f 31/48/26 1/50/26 49/101/26 64/95/26
f 45/99/28 46/59/28 78/62/28 77/100/28
f 82/102/2 83/103/2 115/104/2 114/105/2
f 61/57/35 62/76/35 94/106/35 93/107/35
f 75/54/36 76/98/36 108/108/36 107/55/36
f 62/76/37 63/85/37 95/109/37 94/106/37
f 49/87/38 50/86/38 82/102/38 81/110/38
f 76/98/39 77/100/39 109/111/39 108/108/39
f 63/85/40 64/95/40 96/112/40 95/109/40
f 50/86/41 51/52/41 83/103/41 82/102/41
f 77/100/35 78/62/35 110/113/35 109/111/35
f 64/95/42 49/101/42 81/114/42 96/112/42
f 51/52/43 52/51/43 84/115/43 83/103/43
f 78/62/37 79/61/37 111/116/37 110/113/37
f 65/66/38 66/65/38 98/117/38 97/118/38
f 52/51/44 53/75/44 85/119/44 84/115/44
f 79/61/40 80/68/40 112/120/40 111/116/40
f 66/65/41 67/72/41 99/121/41 98/117/41
f 53/75/45 54/84/45 86/122/45 85/119/45
f 80/68/42 65/66/42 97/118/42 112/120/42
f 67/72/43 68/74/43 100/123/43 99/121/43
f 54/84/46 55/94/46 87/124/46 86/122/46
f 68/74/44 69/78/44 101/125/44 100/123/44
f 55/94/47 56/70/47 88/126/47 87/124/47
f 69/78/45 70/81/45 102/127/45 101/125/45
f 56/70/48 57/69/48 89/128/48 88/126/48
f 70/81/46 71/83/46 103/129/46 102/127/46
f 57/69/49 58/79/49 90/130/49 89/128/49
f 71/83/47 72/89/47 104/131/47 103/129/47
f 58/79/19 59/90/19 91/132/19 90/130/19
f 72/89/48 73/92/48 105/133/48 104/131/48
f 59/90/36 60/58/36 92/134/36 91/132/36
f 73/92/49 74/53/49 106/56/49 105/133/49
f 60/58/39 61/57/39 93/107/39 92/134/39
f 129/135/50 130/136/50 131/137/50 132/138/50 133/139/50 134/140/50 135/141/50 136/142/50 137/143/50 138/144/50 139/145/50 140/146/50 141/147/50 142/148/50 143/149/50 144/150/50
f 109/111/13 110/113/13 142/151/13 141/152/13
f 96/112/17 81/114/17 113/153/17 128/154/17
f 83/103/3 84/115/3 116/155/3 115/104/3
f 110/113/14 111/116/14 143/156/14 142/151/14
f 97/118/1 98/117/1 130/157/1 129/158/1
f 84/115/4 85/119/4 117/159/4 116/155/4
f 111/116/16 112/120/16 144/160/16 143/156/16
f 98/117/2 99/121/2 131/161/2 130/157/2
f 85/119/5 86/122/5 118/162/5 117/159/5
f 112/120/17 97/118/17 129/158/17 144/160/17
f 99/121/3 100/123/3 132/163/3 131/161/3
f 86/122/6 87/124/6 119/164/6 118/162/6
f 100/123/4 101/125/4 133/165/4 132/163/4
f 87/124/7 88/126/7 120/166/7 119/164/7
f 101/125/5 102/127/5 134/167/5 133/165/5
f 88/126/8 89/128/8 121/168/8 120/166/8
f 102/127/6 103/129/6 135/169/6 134/167/6
f 89/128/9 90/130/9 122/170/9 121/168/9
f 103/129/7 104/131/7 136/171/7 135/169/7
f 90/130/10 91/132/10 123/172/10 122/170/10
f 104/131/8 105/133/8 137/173/8 136/171/8
f 91/132/11 92/134/11 124/174/11 123/172/11
f 105/133/9 106/56/9 138/175/9 137/173/9
f 92/134/12 93/107/12 125/176/12 124/174/12
f 106/56/10 107/55/10 139/177/10 138/175/10
f 93/107/13 94/106/13 126/178/13 125/176/13
f 107/55/11 108/108/11 140/179/11 139/177/11
f 94/106/14 95/109/14 127/180/14 126/178/14
f 81/110/1 82/102/1 114/105/1 113/181/1
f 108/108/12 109/111/12 141/152/12 140/179/12
f 95/109/16 96/112/16 128/154/16 127/180/16
